{"title":"Paranoia.2013.CAM.READNFO.XViD-BL4CKP34RL","uid":8865548,"size":1543620756,"categoryP":"video","categoryS":"movies","magnet":"?xt=urn:btih:c9b9152d653ebf407b0033c80b0bb4d2c6c22c79&amp;dn=Paranoia.2013.CAM.READNFO.XViD-BL4CKP34RL&amp;tr=udp%3A%2F%2Ftracker.openbittorrent.com%3A80&amp;tr=udp%3A%2F%2Fopen.demonii.com%3A1337&amp;tr=udp%3A%2F%2Ftracker.coppersurfer.tk%3A6969&amp;tr=udp%3A%2F%2Fexodus.desync.com%3A6969","seeders":0,"leechers":1,"uploader":"R0thschild","files":-1,"time":1377899098,"description":"******************************************************************************************\n                      Paranoia.2013.CAM.READNFO.XViD-BL4CKP34RL                   \n******************************************************************************************\n\nRipper ...........: J4CKSP4RR0W          IMDB Rating.......: 4.7/10                             \nVideo Codec.......: XViD                 Release Date......: 28 August 2013\nAudio Codec.......: mp3                  Theatre Date......: 16 August 2013 (USA)\nAudio Bitrate.....: 128 kbps             Runtime...........: 1 hr 31 min 22 sec \nSubtitles.........: no                   Language..........: ENGLISH\nResolution........: 720x288              IMDb URL..........: http://www.imdb.com/title/tt1413495/\n\n\nDETAILS:\n\n\nFormat                                   : AVI\nFormat/Info                              : Audio Video Interleave\nFile size                                : 1.44 GiB\nDuration                                 : 1h 31mn\nOverall bit rate                         : 2 252 Kbps\nMovie name                               : Paranoya.2013.D.CAMRip.1400Mb.INTERCINEMA\nWriting application                      : VirtualDubMod 1.5.10.3 | www.virtualdub-fr.org || (build 2550/release)\nWriting library                          : VirtualDub build 32839/release\n\n\nVideo\nID                                       : 0\nFormat                                   : MPEG-4 Visual\nFormat profile                           : Advanced Simple@L5\nFormat settings, BVOP                    : 2\nFormat settings, QPel                    : Yes\nFormat settings, GMC                     : No warppoints\nFormat settings, Matrix                  : Default (H.263)\nMuxing mode                              : Packed bitstream\nCodec ID                                 : XVID\nCodec ID/Hint                            : XviD\nDuration                                 : 1h 31mn\nBit rate                                 : 2 115 Kbps\nWidth                                    : 720 pixels\nHeight                                   : 288 pixels\nDisplay aspect ratio                     : 2.500\nFrame rate                               : 25.000 fps\nColor space                              : YUV\nChroma subsampling                       : 4:2:0\nBit depth                                : 8 bits\nScan type                                : Progressive\nCompression mode                         : Lossy\nBits/(Pixel*Frame)                       : 0.408\nStream size                              : 1.35 GiB (94%)\nWriting library                          : XviD 64\n\nAudio\nID                                       : 1\nFormat                                   : MPEG Audio\nFormat version                           : Version 1\nFormat profile                           : Layer 3\nMode                                     : Joint stereo\nMode extension                           : MS Stereo\nCodec ID                                 : 55\nCodec ID/Hint                            : MP3\nDuration                                 : 1h 31mn\nBit rate mode                            : Constant\nBit rate                                 : 128 Kbps\nChannel(s)                               : 2 channels\nSampling rate                            : 44.1 KHz\nCompression mode                         : Lossy\nDelay relative to video                  : 500ms\nStream size                              : 83.7 MiB (6%)\nAlignment                                : Split accross interleaves\nInterleave, duration                     : 40 ms (1.00 video frame)\nWriting library                          : LAME3.98r\nEncoding settings                        : -m j -V 4 -q 3 -lowpass 17 -b 128\n\n\n\n\nSOURCES:\n\n\n\nVIDEO: ............. Paranoya.2013.D.CAMRip.1400Mb.INTERCINEMA ...thanks  \nAUDIO: ............. QUAZiMOTO ...thanks \n\nNOTES:\n\nWE took the russian vid which had a very heavy green tint to it and fixed what we could\ncoloring wise and everythign else.. CAM audio is ok was 1 chan mono audio that we cleaned \nbest we could amd converted to stereo and then synced and muxed it to our finished encode.. \nis watchable until better sources come along...\n\n\nSCREENS:\n &lt;a href=&quot;\nhttp://i.imgur.com/ECva4yD.jpg&quot; rel=&quot;nofollow&quot; target=&quot;_NEW&quot;&gt;\nhttp://i.imgur.com/ECva4yD.jpg&lt;/a&gt;\n &lt;a href=&quot;\nhttp://i.imgur.com/89mFQUm.jpg&quot; rel=&quot;nofollow&quot; target=&quot;_NEW&quot;&gt;\nhttp://i.imgur.com/89mFQUm.jpg&lt;/a&gt;","torrent":{"xt":"urn:btih:c9b9152d653ebf407b0033c80b0bb4d2c6c22c79","amp;dn":"Paranoia.2013.CAM.READNFO.XViD-BL4CKP34RL","amp;tr":["udp%3A%2F%2Ftracker.openbittorrent.com%3A80","udp%3A%2F%2Fopen.demonii.com%3A1337","udp%3A%2F%2Ftracker.coppersurfer.tk%3A6969","udp%3A%2F%2Fexodus.desync.com%3A6969"],"infoHash":"c9b9152d653ebf407b0033c80b0bb4d2c6c22c79","infoHashBuffer":{"type":"Buffer","data":[201,185,21,45,101,62,191,64,123,0,51,200,11,11,180,210,198,194,44,121]},"announce":[],"urlList":[]}}